<?xml version="1.0" encoding="utf-8"?>
<svg viewBox="0 0 1024 1020" xmlns="http://www.w3.org/2000/svg">
  <g fill="#343d46">
    <path d="M 600,473 L 599,474 L 598,474 L 597,475 L 596,475 L 595,476 L 594,476 L 593,477 L 592,477 L 591,478 L 590,478 L 588,480 L 587,480 L 585,482 L 584,482 L 581,485 L 580,485 L 577,488 L 576,488 L 571,493 L 570,493 L 562,501 L 562,502 L 559,505 L 559,506 L 558,507 L 558,508 L 561,511 L 561,512 L 565,516 L 565,517 L 568,520 L 568,521 L 572,525 L 572,526 L 575,529 L 575,530 L 578,533 L 578,534 L 580,536 L 580,537 L 582,539 L 582,540 L 584,542 L 584,543 L 586,545 L 586,546 L 587,547 L 587,548 L 589,550 L 589,551 L 590,552 L 590,553 L 592,555 L 592,556 L 593,557 L 593,558 L 594,559 L 594,560 L 595,561 L 595,562 L 596,563 L 596,564 L 597,565 L 597,566 L 598,567 L 598,568 L 599,569 L 599,570 L 600,571 L 600,572 L 601,573 L 601,575 L 602,576 L 602,577 L 603,578 L 603,580 L 604,581 L 604,582 L 605,583 L 605,585 L 606,586 L 606,589 L 607,590 L 607,592 L 608,593 L 608,596 L 609,597 L 609,602 L 610,603 L 610,610 L 611,611 L 611,619 L 610,620 L 610,624 L 609,625 L 609,626 L 604,631 L 603,631 L 602,632 L 595,632 L 594,633 L 590,633 L 589,632 L 580,632 L 579,631 L 575,631 L 574,630 L 570,630 L 569,629 L 567,629 L 566,628 L 563,628 L 562,627 L 559,627 L 558,626 L 556,626 L 555,625 L 553,625 L 552,624 L 551,624 L 550,623 L 548,623 L 547,622 L 546,622 L 545,621 L 544,621 L 543,620 L 542,620 L 541,619 L 540,619 L 539,618 L 538,618 L 537,617 L 536,617 L 535,616 L 534,616 L 532,614 L 531,614 L 529,612 L 528,612 L 526,610 L 525,610 L 524,609 L 523,609 L 521,607 L 520,607 L 518,605 L 517,605 L 515,603 L 514,603 L 512,601 L 511,601 L 509,599 L 508,599 L 506,597 L 505,597 L 503,595 L 502,595 L 500,593 L 499,593 L 497,591 L 496,591 L 494,589 L 493,589 L 492,588 L 490,588 L 481,597 L 481,598 L 472,607 L 472,608 L 464,616 L 464,617 L 461,620 L 461,622 L 462,622 L 466,626 L 467,626 L 469,628 L 470,628 L 472,630 L 473,630 L 475,632 L 476,632 L 477,633 L 478,633 L 480,635 L 481,635 L 482,636 L 483,636 L 484,637 L 485,637 L 486,638 L 487,638 L 488,639 L 489,639 L 490,640 L 491,640 L 492,641 L 493,641 L 494,642 L 495,642 L 496,643 L 498,643 L 499,644 L 500,644 L 501,645 L 503,645 L 504,646 L 506,646 L 507,647 L 509,647 L 510,648 L 512,648 L 513,649 L 515,649 L 516,650 L 519,650 L 520,651 L 523,651 L 524,652 L 527,652 L 528,653 L 532,653 L 533,654 L 537,654 L 538,655 L 545,655 L 546,656 L 575,656 L 576,655 L 580,655 L 581,654 L 584,654 L 585,653 L 587,653 L 588,652 L 590,652 L 591,651 L 592,651 L 593,650 L 595,650 L 596,649 L 597,649 L 598,648 L 599,648 L 600,647 L 601,647 L 602,646 L 603,646 L 605,644 L 606,644 L 607,643 L 608,643 L 611,640 L 612,640 L 615,637 L 616,637 L 627,626 L 627,625 L 630,622 L 630,621 L 632,619 L 632,618 L 634,616 L 634,615 L 635,614 L 635,613 L 636,612 L 636,611 L 637,610 L 637,609 L 638,608 L 638,607 L 639,606 L 639,605 L 640,604 L 640,603 L 641,602 L 641,600 L 642,599 L 642,597 L 643,596 L 643,594 L 644,593 L 644,590 L 645,589 L 645,583 L 646,582 L 646,563 L 645,562 L 645,555 L 644,554 L 644,550 L 643,549 L 643,546 L 642,545 L 642,542 L 641,541 L 641,539 L 640,538 L 640,535 L 639,534 L 639,532 L 638,531 L 638,530 L 637,529 L 637,527 L 636,526 L 636,524 L 635,523 L 635,522 L 634,521 L 634,520 L 633,519 L 633,518 L 632,517 L 632,515 L 631,514 L 631,513 L 630,512 L 630,511 L 629,510 L 629,509 L 627,507 L 627,506 L 626,505 L 626,504 L 625,503 L 625,502 L 623,500 L 623,499 L 621,497 L 621,496 L 619,494 L 619,493 L 617,491 L 617,490 L 613,486 L 613,485 L 610,482 L 610,481 L 602,473 Z"/>
    <path d="M 618,451 L 617,452 L 604,452 L 603,453 L 597,453 L 596,454 L 591,454 L 590,455 L 586,455 L 585,456 L 581,456 L 580,457 L 577,457 L 576,458 L 573,458 L 572,459 L 570,459 L 569,460 L 567,460 L 566,461 L 564,461 L 563,462 L 562,462 L 561,463 L 559,463 L 558,464 L 557,464 L 556,465 L 555,465 L 554,466 L 553,466 L 552,467 L 551,467 L 550,468 L 549,468 L 548,469 L 547,469 L 546,470 L 545,470 L 544,471 L 543,471 L 542,472 L 541,472 L 540,473 L 539,473 L 538,474 L 537,474 L 535,476 L 534,476 L 533,477 L 532,477 L 531,478 L 530,478 L 528,480 L 527,480 L 526,481 L 525,481 L 523,483 L 522,483 L 520,485 L 519,485 L 517,487 L 516,487 L 514,489 L 513,489 L 511,491 L 510,491 L 507,494 L 506,494 L 503,497 L 502,497 L 499,500 L 498,500 L 493,505 L 492,505 L 486,511 L 485,511 L 477,519 L 476,519 L 465,530 L 464,530 L 451,543 L 450,543 L 440,553 L 439,553 L 434,558 L 433,558 L 429,562 L 428,562 L 424,566 L 423,566 L 419,570 L 418,570 L 415,573 L 414,573 L 412,575 L 411,575 L 408,578 L 407,578 L 405,580 L 404,580 L 402,582 L 401,582 L 399,584 L 398,584 L 397,585 L 396,585 L 394,587 L 393,587 L 392,588 L 391,588 L 389,590 L 388,590 L 387,591 L 386,591 L 385,592 L 384,592 L 383,593 L 382,593 L 380,595 L 379,595 L 378,596 L 377,596 L 376,597 L 375,597 L 374,598 L 373,598 L 372,599 L 371,599 L 370,600 L 369,600 L 368,601 L 367,601 L 366,602 L 364,602 L 363,603 L 362,603 L 361,604 L 360,604 L 359,605 L 357,605 L 356,606 L 354,606 L 353,607 L 352,607 L 351,608 L 349,608 L 348,609 L 346,609 L 345,610 L 343,610 L 342,611 L 340,611 L 339,612 L 336,612 L 335,613 L 332,613 L 331,614 L 327,614 L 326,615 L 321,615 L 320,616 L 313,616 L 312,617 L 302,617 L 301,616 L 294,616 L 293,615 L 289,615 L 288,614 L 284,614 L 283,613 L 281,613 L 280,612 L 277,612 L 276,611 L 274,611 L 273,610 L 272,610 L 271,609 L 269,609 L 268,608 L 267,608 L 266,607 L 264,607 L 263,606 L 262,606 L 261,605 L 260,605 L 259,604 L 258,604 L 257,603 L 256,603 L 255,602 L 254,602 L 253,601 L 252,601 L 251,600 L 249,600 L 249,601 L 250,602 L 250,603 L 251,604 L 251,605 L 252,606 L 252,607 L 253,608 L 253,609 L 255,611 L 255,612 L 257,614 L 257,615 L 258,616 L 258,617 L 260,619 L 260,620 L 262,622 L 262,623 L 265,626 L 265,627 L 268,630 L 268,631 L 273,636 L 273,637 L 285,649 L 286,649 L 289,652 L 290,652 L 293,655 L 294,655 L 296,657 L 297,657 L 298,658 L 299,658 L 301,660 L 302,660 L 303,661 L 304,661 L 305,662 L 306,662 L 307,663 L 308,663 L 309,664 L 310,664 L 311,665 L 313,665 L 314,666 L 315,666 L 316,667 L 318,667 L 319,668 L 321,668 L 322,669 L 325,669 L 326,670 L 329,670 L 330,671 L 335,671 L 336,672 L 354,672 L 355,671 L 360,671 L 361,670 L 365,670 L 366,669 L 369,669 L 370,668 L 373,668 L 374,667 L 376,667 L 377,666 L 379,666 L 380,665 L 382,665 L 383,664 L 384,664 L 385,663 L 387,663 L 388,662 L 389,662 L 390,661 L 392,661 L 393,660 L 394,660 L 395,659 L 396,659 L 397,658 L 398,658 L 399,657 L 400,657 L 401,656 L 402,656 L 403,655 L 404,655 L 406,653 L 407,653 L 408,652 L 409,652 L 410,651 L 411,651 L 413,649 L 414,649 L 416,647 L 417,647 L 419,645 L 420,645 L 422,643 L 423,643 L 425,641 L 426,641 L 429,638 L 430,638 L 434,634 L 435,634 L 440,629 L 441,629 L 458,612 L 458,611 L 465,604 L 465,603 L 472,596 L 472,595 L 484,583 L 484,582 L 493,573 L 493,572 L 500,565 L 500,564 L 505,559 L 505,558 L 510,553 L 510,552 L 514,548 L 514,547 L 518,543 L 518,542 L 521,539 L 521,538 L 524,535 L 524,534 L 527,531 L 527,530 L 530,527 L 530,526 L 533,523 L 533,522 L 536,519 L 536,518 L 540,514 L 540,513 L 544,509 L 544,508 L 549,503 L 549,502 L 568,483 L 569,483 L 573,479 L 574,479 L 577,476 L 578,476 L 580,474 L 581,474 L 583,472 L 584,472 L 586,470 L 587,470 L 589,468 L 590,468 L 591,467 L 592,467 L 593,466 L 594,466 L 595,465 L 596,465 L 597,464 L 598,464 L 599,463 L 600,463 L 601,462 L 602,462 L 603,461 L 605,461 L 606,460 L 607,460 L 608,459 L 610,459 L 611,458 L 613,458 L 614,457 L 616,457 L 617,456 L 619,456 L 620,455 L 622,455 L 623,454 L 625,454 L 626,453 L 628,453 L 629,452 L 631,452 L 629,452 L 628,451 Z"/>
    <path d="M 565,428 L 564,429 L 563,429 L 562,430 L 561,430 L 559,432 L 558,432 L 556,434 L 555,434 L 553,436 L 552,436 L 550,438 L 549,438 L 546,441 L 545,441 L 542,444 L 541,444 L 538,447 L 537,447 L 532,452 L 531,452 L 525,458 L 524,458 L 520,462 L 520,464 L 522,466 L 522,467 L 525,470 L 525,471 L 527,471 L 528,470 L 529,470 L 530,469 L 531,469 L 532,468 L 533,468 L 535,466 L 536,466 L 537,465 L 538,465 L 539,464 L 540,464 L 541,463 L 542,463 L 543,462 L 544,462 L 545,461 L 546,461 L 547,460 L 548,460 L 549,459 L 550,459 L 551,458 L 552,458 L 553,457 L 555,457 L 556,456 L 557,456 L 558,455 L 559,455 L 560,454 L 562,454 L 563,453 L 564,453 L 565,452 L 567,452 L 568,451 L 570,451 L 571,450 L 573,450 L 574,449 L 576,449 L 577,448 L 578,448 L 579,447 L 581,447 L 582,446 L 580,444 L 580,443 L 571,434 L 571,433 L 566,428 Z"/>
    <path d="M 718,379 L 718,381 L 717,382 L 717,386 L 716,387 L 716,391 L 715,392 L 715,396 L 714,397 L 714,402 L 713,403 L 713,407 L 712,408 L 712,413 L 711,414 L 711,418 L 710,419 L 710,424 L 709,425 L 709,429 L 708,430 L 708,435 L 707,436 L 707,438 L 706,439 L 704,439 L 703,440 L 700,440 L 699,441 L 696,441 L 695,442 L 691,442 L 690,443 L 686,443 L 685,444 L 680,444 L 679,445 L 675,445 L 674,446 L 669,446 L 668,447 L 664,447 L 663,448 L 658,448 L 657,449 L 652,449 L 651,450 L 648,450 L 650,450 L 651,451 L 657,451 L 658,452 L 664,452 L 665,453 L 671,453 L 672,454 L 677,454 L 678,455 L 684,455 L 685,456 L 690,456 L 691,457 L 696,457 L 697,458 L 701,458 L 702,459 L 706,459 L 708,461 L 708,463 L 709,464 L 709,469 L 710,470 L 710,475 L 711,476 L 711,480 L 712,481 L 712,486 L 713,487 L 713,492 L 714,493 L 714,498 L 715,499 L 715,504 L 716,505 L 716,510 L 717,511 L 717,515 L 718,516 L 718,518 L 718,514 L 719,513 L 719,508 L 720,507 L 720,503 L 721,502 L 721,497 L 722,496 L 722,491 L 723,490 L 723,485 L 724,484 L 724,479 L 725,478 L 725,473 L 726,472 L 726,467 L 727,466 L 727,462 L 730,459 L 734,459 L 735,458 L 739,458 L 740,457 L 745,457 L 746,456 L 751,456 L 752,455 L 756,455 L 757,454 L 763,454 L 764,453 L 769,453 L 770,452 L 775,452 L 776,451 L 782,451 L 783,450 L 788,450 L 789,449 L 790,449 L 786,449 L 785,448 L 780,448 L 779,447 L 774,447 L 773,446 L 767,446 L 766,445 L 761,445 L 760,444 L 754,444 L 753,443 L 748,443 L 747,442 L 742,442 L 741,441 L 736,441 L 735,440 L 732,440 L 731,439 L 729,439 L 727,437 L 727,433 L 726,432 L 726,426 L 725,425 L 725,420 L 724,419 L 724,414 L 723,413 L 723,408 L 722,407 L 722,401 L 721,400 L 721,396 L 720,395 L 720,390 L 719,389 L 719,384 L 718,383 Z"/>
    <path d="M 395,350 L 394,351 L 389,351 L 388,352 L 384,352 L 383,353 L 381,353 L 380,354 L 378,354 L 377,355 L 375,355 L 374,356 L 373,356 L 372,357 L 370,357 L 369,358 L 368,358 L 367,359 L 366,359 L 364,361 L 363,361 L 362,362 L 361,362 L 359,364 L 358,364 L 356,366 L 355,366 L 352,369 L 351,369 L 341,379 L 341,380 L 338,383 L 338,384 L 336,386 L 336,387 L 334,389 L 334,390 L 333,391 L 333,392 L 332,393 L 332,394 L 331,395 L 331,396 L 330,397 L 330,398 L 329,399 L 329,400 L 328,401 L 328,403 L 327,404 L 327,406 L 326,407 L 326,409 L 325,410 L 325,413 L 324,414 L 324,418 L 323,419 L 323,426 L 322,427 L 322,444 L 323,445 L 323,451 L 324,452 L 324,457 L 325,458 L 325,461 L 326,462 L 326,465 L 327,466 L 327,469 L 328,470 L 328,472 L 329,473 L 329,475 L 330,476 L 330,478 L 331,479 L 331,481 L 332,482 L 332,483 L 333,484 L 333,486 L 334,487 L 334,488 L 335,489 L 335,490 L 336,491 L 336,492 L 337,493 L 337,494 L 338,495 L 338,497 L 339,498 L 339,499 L 341,501 L 341,502 L 342,503 L 342,504 L 343,505 L 343,506 L 345,508 L 345,509 L 346,510 L 346,511 L 348,513 L 348,514 L 350,516 L 350,517 L 352,519 L 352,520 L 355,523 L 355,524 L 358,527 L 358,528 L 362,532 L 362,533 L 370,541 L 370,542 L 374,546 L 375,546 L 377,544 L 377,543 L 380,540 L 380,539 L 382,537 L 382,536 L 384,534 L 384,533 L 386,531 L 386,530 L 388,528 L 388,527 L 389,526 L 389,525 L 391,523 L 391,522 L 393,520 L 393,519 L 394,518 L 394,517 L 396,515 L 396,514 L 397,513 L 397,512 L 398,511 L 398,510 L 400,508 L 400,507 L 401,506 L 401,505 L 402,504 L 402,503 L 403,502 L 403,501 L 404,500 L 404,499 L 405,498 L 405,496 L 403,494 L 403,493 L 400,490 L 400,489 L 397,486 L 397,485 L 394,482 L 394,481 L 392,479 L 392,478 L 389,475 L 389,474 L 387,472 L 387,471 L 385,469 L 385,468 L 383,466 L 383,465 L 382,464 L 382,463 L 380,461 L 380,460 L 378,458 L 378,457 L 377,456 L 377,455 L 375,453 L 375,452 L 374,451 L 374,450 L 372,448 L 372,447 L 371,446 L 371,445 L 370,444 L 370,443 L 369,442 L 369,441 L 368,440 L 368,439 L 367,438 L 367,437 L 366,436 L 366,435 L 365,434 L 365,433 L 364,432 L 364,430 L 363,429 L 363,428 L 362,427 L 362,425 L 361,424 L 361,423 L 360,422 L 360,420 L 359,419 L 359,417 L 358,416 L 358,413 L 357,412 L 357,409 L 356,408 L 356,404 L 355,403 L 355,395 L 354,394 L 354,386 L 355,385 L 355,379 L 356,378 L 356,377 L 359,374 L 365,374 L 366,373 L 381,373 L 382,374 L 387,374 L 388,375 L 392,375 L 393,376 L 396,376 L 397,377 L 400,377 L 401,378 L 403,378 L 404,379 L 406,379 L 407,380 L 409,380 L 410,381 L 411,381 L 412,382 L 414,382 L 415,383 L 416,383 L 417,384 L 418,384 L 419,385 L 421,385 L 422,386 L 423,386 L 424,387 L 425,387 L 426,388 L 427,388 L 428,389 L 429,389 L 430,390 L 431,390 L 432,391 L 433,391 L 434,392 L 435,392 L 436,393 L 437,393 L 438,394 L 439,394 L 441,396 L 442,396 L 443,397 L 444,397 L 445,398 L 446,398 L 448,400 L 449,400 L 450,401 L 451,401 L 453,403 L 454,403 L 455,404 L 456,404 L 458,406 L 459,406 L 461,408 L 462,408 L 464,410 L 465,410 L 467,412 L 468,412 L 470,414 L 499,385 L 499,384 L 500,383 L 499,382 L 499,381 L 495,377 L 494,377 L 492,375 L 491,375 L 490,374 L 489,374 L 487,372 L 486,372 L 485,371 L 484,371 L 483,370 L 482,370 L 481,369 L 480,369 L 479,368 L 477,368 L 476,367 L 475,367 L 474,366 L 473,366 L 472,365 L 471,365 L 470,364 L 468,364 L 467,363 L 465,363 L 464,362 L 463,362 L 462,361 L 460,361 L 459,360 L 457,360 L 456,359 L 453,359 L 452,358 L 450,358 L 449,357 L 446,357 L 445,356 L 442,356 L 441,355 L 438,355 L 437,354 L 433,354 L 432,353 L 428,353 L 427,352 L 422,352 L 421,351 L 414,351 L 413,350 Z"/>
    <path d="M 597,344 L 596,345 L 588,345 L 587,346 L 583,346 L 582,347 L 578,347 L 577,348 L 575,348 L 574,349 L 571,349 L 570,350 L 568,350 L 567,351 L 566,351 L 565,352 L 563,352 L 562,353 L 560,353 L 559,354 L 558,354 L 557,355 L 556,355 L 555,356 L 554,356 L 553,357 L 552,357 L 551,358 L 550,358 L 549,359 L 548,359 L 547,360 L 546,360 L 545,361 L 544,361 L 542,363 L 541,363 L 540,364 L 539,364 L 537,366 L 536,366 L 534,368 L 533,368 L 531,370 L 530,370 L 528,372 L 527,372 L 524,375 L 523,375 L 520,378 L 519,378 L 516,381 L 515,381 L 511,385 L 510,385 L 505,390 L 504,390 L 483,411 L 483,412 L 476,419 L 476,420 L 470,426 L 470,427 L 465,432 L 465,433 L 461,437 L 461,438 L 457,442 L 457,443 L 453,447 L 453,448 L 450,451 L 450,452 L 448,454 L 448,455 L 445,458 L 445,459 L 443,461 L 443,462 L 441,464 L 441,465 L 439,467 L 439,468 L 437,470 L 437,471 L 435,473 L 435,474 L 433,476 L 433,477 L 431,479 L 431,480 L 429,482 L 429,483 L 428,484 L 428,485 L 426,487 L 426,488 L 424,490 L 424,491 L 423,492 L 423,493 L 421,495 L 421,496 L 420,497 L 420,498 L 418,500 L 418,501 L 417,502 L 417,503 L 415,505 L 415,506 L 414,507 L 414,508 L 412,510 L 412,511 L 411,512 L 411,513 L 409,515 L 409,516 L 407,518 L 407,519 L 406,520 L 406,521 L 404,523 L 404,524 L 402,526 L 402,527 L 400,529 L 400,530 L 398,532 L 398,533 L 396,535 L 396,536 L 393,539 L 393,540 L 390,543 L 390,544 L 387,547 L 387,548 L 382,553 L 382,554 L 376,560 L 376,561 L 362,575 L 361,575 L 354,582 L 353,582 L 349,586 L 348,586 L 345,589 L 344,589 L 341,592 L 341,593 L 349,593 L 350,592 L 354,592 L 355,591 L 358,591 L 359,590 L 361,590 L 362,589 L 364,589 L 365,588 L 367,588 L 368,587 L 369,587 L 370,586 L 372,586 L 373,585 L 375,585 L 376,584 L 377,584 L 378,583 L 379,583 L 380,582 L 381,582 L 382,581 L 384,581 L 385,580 L 386,580 L 387,579 L 388,579 L 389,578 L 390,578 L 391,577 L 392,577 L 394,575 L 395,575 L 396,574 L 397,574 L 398,573 L 399,573 L 401,571 L 402,571 L 403,570 L 404,570 L 406,568 L 407,568 L 409,566 L 410,566 L 412,564 L 413,564 L 416,561 L 417,561 L 420,558 L 421,558 L 426,553 L 427,553 L 455,525 L 455,524 L 466,513 L 466,512 L 473,505 L 473,504 L 480,497 L 480,496 L 485,491 L 485,490 L 490,485 L 490,484 L 494,480 L 494,479 L 499,474 L 499,473 L 505,467 L 505,466 L 511,460 L 511,459 L 524,446 L 525,446 L 531,440 L 532,440 L 536,436 L 537,436 L 540,433 L 541,433 L 543,431 L 544,431 L 546,429 L 547,429 L 549,427 L 550,427 L 552,425 L 553,425 L 555,423 L 556,423 L 558,421 L 559,421 L 560,420 L 561,420 L 562,419 L 563,419 L 565,417 L 566,417 L 567,416 L 568,416 L 569,415 L 570,415 L 571,414 L 572,414 L 573,413 L 574,413 L 575,412 L 576,412 L 577,411 L 578,411 L 579,410 L 580,410 L 581,409 L 583,409 L 584,408 L 585,408 L 586,407 L 587,407 L 588,406 L 590,406 L 591,405 L 592,405 L 593,404 L 595,404 L 596,403 L 598,403 L 599,402 L 602,402 L 603,401 L 605,401 L 606,400 L 609,400 L 610,399 L 614,399 L 615,398 L 619,398 L 620,397 L 626,397 L 627,396 L 649,396 L 650,397 L 657,397 L 658,398 L 662,398 L 663,399 L 666,399 L 667,400 L 670,400 L 671,401 L 672,401 L 673,402 L 675,402 L 676,403 L 677,403 L 678,404 L 680,404 L 681,405 L 682,405 L 683,406 L 684,406 L 685,407 L 686,407 L 687,408 L 688,408 L 689,409 L 690,409 L 691,410 L 692,410 L 692,407 L 691,406 L 691,405 L 690,404 L 690,403 L 689,402 L 689,401 L 688,400 L 688,399 L 687,398 L 687,397 L 686,396 L 686,395 L 684,393 L 684,392 L 682,390 L 682,389 L 680,387 L 680,386 L 678,384 L 678,383 L 674,379 L 674,378 L 660,364 L 659,364 L 655,360 L 654,360 L 652,358 L 651,358 L 649,356 L 648,356 L 647,355 L 646,355 L 645,354 L 644,354 L 643,353 L 642,353 L 641,352 L 640,352 L 639,351 L 638,351 L 637,350 L 635,350 L 634,349 L 632,349 L 631,348 L 629,348 L 628,347 L 624,347 L 623,346 L 619,346 L 618,345 L 610,345 L 609,344 Z"/>
  </g>
</svg>